<svg width="20" height="20" viewBox="0 0 20 20" fill="none" xmlns="http://www.w3.org/2000/svg">
<path d="M17.9001 0.307193C17.7392 -0.102398 17.1616 -0.102398 17.0007 0.307193L16.5703 1.40247C16.5212 1.52752 16.4226 1.62651 16.298 1.67583L15.2067 2.1078C14.7986 2.26934 14.7986 2.849 15.2067 3.01054L16.298 3.44252C16.4226 3.49184 16.5212 3.59082 16.5703 3.71587L17.0007 4.81115C17.1616 5.22074 17.7392 5.22074 17.9001 4.81116L18.3305 3.71587C18.3796 3.59082 18.4782 3.49184 18.6028 3.44252L19.6941 3.01054C20.1022 2.849 20.1022 2.26934 19.6941 2.1078L18.6028 1.67583C18.4782 1.62651 18.3796 1.52752 18.3305 1.40247L17.9001 0.307193Z" fill="black"/>
<path d="M14.0328 6.12966C13.8718 5.72008 13.2943 5.72008 13.1333 6.12966L12.9764 6.52901C12.9273 6.65406 12.8287 6.75304 12.7041 6.80236L12.3062 6.95986C11.8981 7.1214 11.8981 7.70106 12.3062 7.8626L12.7041 8.02009C12.8287 8.06939 12.9273 8.16839 12.9764 8.29349L13.1333 8.69279C13.2943 9.10239 13.8718 9.10239 14.0328 8.69279L14.1897 8.29349C14.2388 8.16839 14.3374 8.06939 14.462 8.02009L14.8599 7.8626C15.268 7.70106 15.268 7.1214 14.8599 6.95986L14.462 6.80236C14.3374 6.75304 14.2388 6.65406 14.1897 6.52901L14.0328 6.12966Z" fill="black"/>
<path d="M10 20C15.5228 20 20 15.5228 20 10C20 9.5373 19.3065 9.4608 19.0672 9.8568C17.9289 11.7406 15.8615 13 13.5 13C9.9101 13 7 10.0899 7 6.5C7 4.13845 8.2594 2.07105 10.1432 0.93276C10.5392 0.69347 10.4627 0 10 0C4.47715 0 0 4.47715 0 10C0 15.5228 4.47715 20 10 20Z" fill="black"/>
</svg>
