<svg width="20" height="20" viewBox="0 0 20 20" fill="none" xmlns="http://www.w3.org/2000/svg">
<path opacity="0.8" d="M10 20C15.5228 20 20 15.5229 20 9.99999C20 4.47715 15.5228 0 10 0C4.47715 0 0 4.47715 0 9.99999C0 15.5229 4.47715 20 10 20Z" fill="black"/>
<path d="M10 4.92993C7.93 4.92993 6.25 6.60993 6.25 8.67989C6.25 10.7099 7.84 12.3599 9.95 12.4199C9.98 12.4199 10.02 12.4199 10.04 12.4199C10.06 12.4199 10.09 12.4199 10.11 12.4199C10.12 12.4199 10.13 12.4199 10.13 12.4199C12.15 12.3499 13.74 10.7099 13.75 8.67989C13.75 6.60993 12.07 4.92993 10 4.92993Z" fill="#662E2E"/>
<path d="M16.7807 17.35C15.0007 18.99 12.6207 20 10.0007 20C7.3807 20 5.0007 18.99 3.2207 17.35C3.4607 16.44 4.1107 15.61 5.0607 14.97C7.7907 13.15 12.2307 13.15 14.9407 14.97C15.9007 15.61 16.5407 16.44 16.7807 17.35Z" fill="#662E2E"/>
</svg>
