<svg width="24" height="24" viewBox="0 0 24 24" fill="none" xmlns="http://www.w3.org/2000/svg">
<path d="M5.23998 12H1.47998C0.927696 12 0.47998 12.4477 0.47998 13V22.52C0.47998 23.0723 0.927696 23.52 1.47998 23.52H5.23998C5.79226 23.52 6.23998 23.0723 6.23998 22.52V13C6.23998 12.4477 5.79226 12 5.23998 12Z" fill="black"/>
<path d="M13.88 0.480003H10.12C9.56771 0.480003 9.12 0.927719 9.12 1.48V22.52C9.12 23.0723 9.56771 23.52 10.12 23.52H13.88C14.4323 23.52 14.88 23.0723 14.88 22.52V1.48C14.88 0.927719 14.4323 0.480003 13.88 0.480003Z" fill="black"/>
<path d="M22.52 8.16H18.76C18.2077 8.16 17.76 8.60772 17.76 9.16V22.52C17.76 23.0723 18.2077 23.52 18.76 23.52H22.52C23.0723 23.52 23.52 23.0723 23.52 22.52V9.16C23.52 8.60772 23.0723 8.16 22.52 8.16Z" fill="black"/>
</svg>
