<svg width="14" height="10" viewBox="0 0 14 10" fill="none" xmlns="http://www.w3.org/2000/svg">
<path d="M1 0H13C13.5523 0 14 0.447715 14 1C14 1.55228 13.5523 2 13 2H1C0.447715 2 0 1.55228 0 1C0 0.447715 0.447715 0 1 0Z" fill="black"/>
<path d="M1 4H13C13.5523 4 14 4.44772 14 5C14 5.55228 13.5523 6 13 6H1C0.447715 6 0 5.55228 0 5C0 4.44772 0.447715 4 1 4Z" fill="black"/>
<path d="M0.888889 8H7.11111C7.60203 8 8 8.44772 8 9C8 9.55228 7.60203 10 7.11111 10H0.888889C0.397969 10 0 9.55228 0 9C0 8.44772 0.397969 8 0.888889 8Z" fill="black"/>
</svg>
