<svg width="18" height="22" viewBox="0 0 18 22" fill="none" xmlns="http://www.w3.org/2000/svg">
<path fill-rule="evenodd" clip-rule="evenodd" d="M6.29289 0.29289C6.48043 0.10536 6.73478 0 7 0H15C16.6569 0 18 1.34315 18 3V19C18 20.6569 16.6569 22 15 22H3C1.34315 22 0 20.6569 0 19V7C0 6.73478 0.10536 6.48043 0.29289 6.29289L6.29289 0.29289ZM15 2H8V7C8 7.55228 7.5523 8 7 8H2V19C2 19.5523 2.44772 20 3 20H15C15.5523 20 16 19.5523 16 19V3C16 2.44772 15.5523 2 15 2ZM3.41421 6H6V3.41421L3.41421 6ZM4 12C4 11.4477 4.44772 11 5 11H13C13.5523 11 14 11.4477 14 12C14 12.5523 13.5523 13 13 13H5C4.44772 13 4 12.5523 4 12ZM4 16C4 15.4477 4.44772 15 5 15H13C13.5523 15 14 15.4477 14 16C14 16.5523 13.5523 17 13 17H5C4.44772 17 4 16.5523 4 16Z" fill="black"/>
</svg>
