<svg width="14" height="15" viewBox="0 0 14 15" fill="none" xmlns="http://www.w3.org/2000/svg">
<path d="M0.5 1.25C0.5 1.05109 0.579018 0.860322 0.71967 0.71967C0.860322 0.579018 1.05109 0.5 1.25 0.5C1.44891 0.5 1.63968 0.579018 1.78033 0.71967C1.92098 0.860322 2 1.05109 2 1.25V3.101C3.13555 1.94203 4.63845 1.21354 6.2517 1.04009C7.86496 0.86664 9.48836 1.25901 10.8443 2.1501C12.2003 3.04118 13.2046 4.37565 13.6855 5.9253C14.1664 7.47495 14.094 9.14353 13.4807 10.6457C12.8675 12.1479 11.7514 13.3904 10.3234 14.1607C8.89536 14.9311 7.24408 15.1814 5.6519 14.8689C4.05972 14.5565 2.62555 13.7006 1.59461 12.4476C0.563669 11.1947 4.7551e-06 9.62255 0 8C2.96403e-09 7.80109 0.0790177 7.61032 0.21967 7.46967C0.360322 7.32902 0.551088 7.25 0.75 7.25C0.948912 7.25 1.13968 7.32902 1.28033 7.46967C1.42098 7.61032 1.5 7.80109 1.5 8C1.50002 9.26562 1.93653 10.4925 2.7359 11.4737C3.53527 12.455 4.6486 13.1305 5.88809 13.3864C7.12758 13.6422 8.41739 13.4628 9.53997 12.8783C10.6625 12.2938 11.5492 11.3401 12.0504 10.1779C12.5516 9.01574 12.6366 7.71629 12.2912 6.49872C11.9457 5.28115 11.1909 4.21998 10.1541 3.49418C9.11726 2.76838 7.86183 2.42237 6.59957 2.51452C5.3373 2.60666 4.14544 3.13132 3.225 4H4.75C4.94891 4 5.13968 4.07902 5.28033 4.21967C5.42098 4.36032 5.5 4.55109 5.5 4.75C5.5 4.94891 5.42098 5.13968 5.28033 5.28033C5.13968 5.42098 4.94891 5.5 4.75 5.5H1.25C1.05109 5.5 0.860322 5.42098 0.71967 5.28033C0.579018 5.13968 0.5 4.94891 0.5 4.75V1.25Z" fill="black"/>
<path d="M7.25 4C7.44891 4 7.63968 4.07902 7.78033 4.21967C7.92098 4.36032 8 4.55109 8 4.75V8.513L9.805 9.315C9.98249 9.39856 10.1202 9.54833 10.1885 9.7322C10.2569 9.91608 10.2505 10.1194 10.1707 10.2986C10.0909 10.4778 9.94408 10.6187 9.76168 10.6909C9.57929 10.7631 9.37585 10.761 9.195 10.685L6.945 9.685C6.81256 9.62605 6.70004 9.52997 6.62106 9.4084C6.54209 9.28683 6.50004 9.14497 6.5 9V4.75C6.5 4.55109 6.57902 4.36032 6.71967 4.21967C6.86032 4.07902 7.05109 4 7.25 4Z" fill="black"/>
</svg>
