<svg width="20" height="20" viewBox="0 0 20 20" fill="none" xmlns="http://www.w3.org/2000/svg">
<path opacity="0.4" d="M10 20C15.5228 20 20 15.5228 20 10C20 4.47715 15.5228 0 10 0C4.47715 0 0 4.47715 0 10C0 15.5228 4.47715 20 10 20Z" fill="black"/>
<path d="M10 11.75C10.41 11.75 10.75 11.41 10.75 11V6C10.75 5.59 10.41 5.25 10 5.25C9.59 5.25 9.25 5.59 9.25 6V11C9.25 11.41 9.59 11.75 10 11.75Z" fill="black"/>
<path d="M10.92 13.6199C10.87 13.4999 10.8 13.3899 10.71 13.2899C10.61 13.1999 10.5 13.1299 10.38 13.0799C10.14 12.9799 9.86 12.9799 9.62 13.0799C9.5 13.1299 9.39 13.1999 9.29 13.2899C9.2 13.3899 9.13 13.4999 9.08 13.6199C9.03 13.7399 9 13.8699 9 13.9999C9 14.1299 9.03 14.2599 9.08 14.3799C9.13 14.5099 9.2 14.6099 9.29 14.7099C9.39 14.7999 9.5 14.8699 9.62 14.9199C9.74 14.9699 9.87 14.9999 10 14.9999C10.13 14.9999 10.26 14.9699 10.38 14.9199C10.5 14.8699 10.61 14.7999 10.71 14.7099C10.8 14.6099 10.87 14.5099 10.92 14.3799C10.97 14.2599 11 14.1299 11 13.9999C11 13.8699 10.97 13.7399 10.92 13.6199Z" fill="black"/>
</svg>
