<svg width="34" height="33" viewBox="0 0 34 33" fill="none" xmlns="http://www.w3.org/2000/svg">
<path d="M1 17.1659C1.152 8.40093 7.287 2.16093 14.797 1.15093C23.756 -0.0480734 31.292 6.04593 32.74 14.1299C34.115 21.7969 29.901 28.9739 22.953 31.8179C22.354 32.0619 22.026 31.9269 21.797 31.3179L18.344 22.3489C18.147 21.8219 18.281 21.4939 18.797 21.2609C20.36 20.5519 21.333 19.3649 21.594 17.6609C22.005 15.0209 20.094 12.5839 17.433 12.3539C15.01 12.1189 12.824 13.8069 12.433 16.2069C12.094 18.3379 13.146 20.3219 15.13 21.2229C15.75 21.5039 15.875 21.7799 15.635 22.4109L12.166 31.4419C11.999 31.8849 11.635 32.0419 11.166 31.8589C7.505 30.4269 4.499 27.6919 2.729 24.1819C1.12 21.0049 1.105 18.5209 1 17.1609V17.1659ZM2.349 17.0419C2.376 17.4689 2.39 17.9629 2.433 18.4689C2.838 23.1089 5.63 27.7289 10.885 30.2859C11.094 30.3789 11.172 30.3379 11.25 30.1409C12.209 27.6139 13.177 25.0889 14.151 22.5619C14.234 22.3539 14.192 22.2549 13.999 22.1349C11.958 20.8479 10.942 19.0039 11.056 16.5829C11.119 15.1919 11.656 13.9679 12.593 12.9469C14.525 10.8379 17.561 10.3789 20.046 11.8119C22.098 12.9989 23.243 15.2959 22.962 17.6509C22.727 19.6189 21.718 21.1299 20.009 22.1509C19.837 22.2549 19.785 22.3379 19.864 22.5399C20.843 25.0719 21.817 27.6029 22.78 30.1349C22.859 30.3379 22.937 30.3789 23.14 30.2799C25.437 29.2119 27.348 27.6809 28.828 25.6399C31.072 22.5249 31.999 19.0609 31.556 15.2489C30.676 7.66493 23.853 1.38393 15.067 2.46793C8.223 3.30693 2.463 9.08293 2.348 17.0409L2.349 17.0419Z" fill="#2F5EB6" stroke="#2F5EB6"/>
</svg>
