<svg width="224" height="200" viewBox="0 0 224 200" fill="none" xmlns="http://www.w3.org/2000/svg">
<path d="M156 88H204C209.303 87.9941 214.386 85.8851 218.136 82.1356C221.885 78.3862 223.994 73.3025 224 68V20C223.994 14.6975 221.885 9.61383 218.136 5.86438C214.386 2.11493 209.303 0.0058998 204 0H156C150.697 0.0058998 145.614 2.11493 141.864 5.86438C138.115 9.61383 136.006 14.6975 136 20V32H132C122.456 32.0107 113.305 35.807 106.556 42.556C99.807 49.305 96.0107 58.4555 96 68V88H80V80C79.9941 74.6975 77.8851 69.6138 74.1356 65.8644C70.3862 62.1149 65.3025 60.0059 60 60H20C14.6975 60.0059 9.61383 62.1149 5.86438 65.8644C2.11493 69.6138 0.0058998 74.6975 0 80V120C0.0058998 125.303 2.11493 130.386 5.86438 134.136C9.61383 137.885 14.6975 139.994 20 140H60C65.3025 139.994 70.3862 137.885 74.1356 134.136C77.8851 130.386 79.9941 125.303 80 120V112H96V132C96.0107 141.544 99.807 150.695 106.556 157.444C113.305 164.193 122.456 167.989 132 168H136V180C136.006 185.303 138.115 190.386 141.864 194.136C145.614 197.885 150.697 199.994 156 200H204C209.303 199.994 214.386 197.885 218.136 194.136C221.885 190.386 223.994 185.303 224 180V132C223.994 126.697 221.885 121.614 218.136 117.864C214.386 114.115 209.303 112.006 204 112H156C150.697 112.006 145.614 114.115 141.864 117.864C138.115 121.614 136.006 126.697 136 132V144H132C128.818 143.996 125.768 142.731 123.519 140.481C121.269 138.232 120.004 135.182 120 132V68C120.004 64.8185 121.269 61.7683 123.519 59.5186C125.768 57.269 128.818 56.0036 132 56H136V68C136.006 73.3025 138.115 78.3862 141.864 82.1356C145.614 85.8851 150.697 87.9941 156 88ZM56 116H24V84H56V116ZM160 136H200V176H160V136ZM160 24H200V64H160V24Z" fill="black"/>
</svg>
