<svg width="18" height="22" viewBox="0 0 18 22" fill="none" xmlns="http://www.w3.org/2000/svg">
<path d="M8.28071 0.293005C8.37381 0.200361 8.48425 0.126964 8.60571 0.077005C8.72665 0.0261795 8.85652 0 8.98771 0C9.1189 0 9.24877 0.0261795 9.36971 0.077005C9.49118 0.126964 9.60161 0.200361 9.69471 0.293005L17.6947 8.293C17.8769 8.48161 17.9777 8.73421 17.9754 8.99641C17.9731 9.2586 17.8679 9.50942 17.6825 9.69482C17.4971 9.88023 17.2463 9.9854 16.9841 9.98768C16.7219 9.98996 16.4693 9.88916 16.2807 9.707L9.98771 3.41401V21C9.98771 21.2652 9.88235 21.5196 9.69482 21.7071C9.50728 21.8946 9.25293 22 8.98771 22C8.7225 22 8.46814 21.8946 8.28061 21.7071C8.09307 21.5196 7.98771 21.2652 7.98771 21V3.41401L1.69471 9.707C1.50611 9.88916 1.25351 9.98996 0.99131 9.98768C0.729114 9.9854 0.478301 9.88023 0.292893 9.69482C0.107485 9.50942 0.00231622 9.2586 3.78026e-05 8.99641C-0.00224062 8.73421 0.0985537 8.48161 0.280712 8.293L8.28071 0.293005Z" fill="black"/>
</svg>
