<svg width="18" height="22" viewBox="0 0 18 22" fill="none" xmlns="http://www.w3.org/2000/svg">
<path fill-rule="evenodd" clip-rule="evenodd" d="M18 7C18 5.34315 16.6569 4 15 4H7C5.34315 4 4 5.34315 4 7V19C4 20.6569 5.34315 22 7 22H15C16.6569 22 18 20.6569 18 19V7ZM16 7C16 6.44772 15.5523 6 15 6H7C6.44772 6 6 6.44772 6 7V19C6 19.5523 6.44772 20 7 20H15C15.5523 20 16 19.5523 16 19V7Z" fill="#0F0F0F"/>
<path d="M3 2H13C13.5523 2 14 1.55228 14 1C14 0.44772 13.5523 0 13 0H3C1.34315 0 0 1.34315 0 3V17C0 17.5523 0.44772 18 1 18C1.55228 18 2 17.5523 2 17V3C2 2.44772 2.44772 2 3 2Z" fill="#0F0F0F"/>
</svg>
