<svg width="48" height="48" viewBox="0 0 48 48" fill="none" xmlns="http://www.w3.org/2000/svg">
<path fill-rule="evenodd" clip-rule="evenodd" d="M38.03 24C38.03 21.249 40.263 19.015 43.015 19.015C45.766 19.015 48 21.249 48 24C48 26.751 45.766 28.985 43.015 28.985C40.263 28.985 38.03 26.751 38.03 24Z" fill="#D9D9D9"/>
<path fill-rule="evenodd" clip-rule="evenodd" d="M33.9201 33.92C35.8661 31.975 39.0251 31.975 40.9711 33.92C42.9161 35.866 42.9161 39.025 40.9711 40.971C39.0251 42.916 35.8661 42.916 33.9201 40.971C31.9751 39.025 31.9751 35.866 33.9201 33.92Z" fill="#B3B3B3"/>
<path d="M24 48C26.7532 48 28.985 45.7681 28.985 43.015C28.985 40.2619 26.7532 38.03 24 38.03C21.2469 38.03 19.015 40.2619 19.015 43.015C19.015 45.7681 21.2469 48 24 48Z" fill="#8C8C8C"/>
<path fill-rule="evenodd" clip-rule="evenodd" d="M14.0799 33.92C16.0249 35.866 16.0249 39.025 14.0799 40.971C12.1339 42.916 8.97494 42.916 7.02894 40.971C5.08394 39.025 5.08394 35.866 7.02894 33.92C8.97494 31.975 12.1339 31.975 14.0799 33.92Z" fill="#666666"/>
<path fill-rule="evenodd" clip-rule="evenodd" d="M9.97 24C9.97 26.751 7.737 28.985 4.985 28.985C2.234 28.985 0 26.751 0 24C0 21.249 2.234 19.015 4.985 19.015C7.737 19.015 9.97 21.249 9.97 24Z" fill="#404040"/>
<path fill-rule="evenodd" clip-rule="evenodd" d="M14.0799 14.08C12.1339 16.025 8.97494 16.025 7.02894 14.08C5.08394 12.134 5.08394 8.975 7.02894 7.029C8.97494 5.084 12.1339 5.084 14.0799 7.029C16.0249 8.975 16.0249 12.134 14.0799 14.08Z" fill="#404040"/>
<path d="M24 9.97C26.7532 9.97 28.985 7.73814 28.985 4.985C28.985 2.23186 26.7532 0 24 0C21.2469 0 19.015 2.23186 19.015 4.985C19.015 7.73814 21.2469 9.97 24 9.97Z" fill="black"/>
</svg>
