<svg width="42" height="42" viewBox="0 0 42 42" fill="none" xmlns="http://www.w3.org/2000/svg">
<path d="M37.5 2.5H4.5C3.96957 2.5 3.46086 2.71071 3.08579 3.08579C2.71071 3.46086 2.5 3.96957 2.5 4.5V37.5C2.5 38.0304 2.71071 38.5391 3.08579 38.9142C3.46086 39.2893 3.96957 39.5 4.5 39.5H37.5C38.0304 39.5 38.5391 39.2893 38.9142 38.9142C39.2893 38.5391 39.5 38.0304 39.5 37.5V4.5C39.5 3.96957 39.2893 3.46086 38.9142 3.08579C38.5391 2.71071 38.0304 2.5 37.5 2.5Z" stroke="white" stroke-width="3.408" stroke-linecap="round" stroke-linejoin="round"/>
<path d="M18.71 7.5C16.9259 7.50794 15.2178 8.22292 13.96 9.48822C12.7022 10.7535 11.9973 12.4659 12 14.25C11.9973 16.0341 12.7022 17.7465 13.96 19.0118C15.2178 20.2771 16.9259 20.9921 18.71 21H21" stroke="white" stroke-width="3.408" stroke-linecap="round" stroke-linejoin="round"/>
<path d="M21 21H23.29C25.0741 21.0079 26.7822 21.7229 28.04 22.9882C29.2978 24.2535 30.0027 25.9659 30 27.75C30.0013 28.6351 29.8283 29.5118 29.4908 30.33C29.1533 31.1483 28.6579 31.892 28.033 32.5188C27.408 33.1456 26.6658 33.6432 25.8485 33.9831C25.0313 34.3231 24.1551 34.4987 23.27 34.5" stroke="white" stroke-width="3.408" stroke-linecap="round" stroke-linejoin="round"/>
<path d="M29.38 9.78C27.52 8.22 25.51 7.5 21 7.5H18.71" stroke="white" stroke-width="3.408" stroke-linecap="round" stroke-linejoin="round"/>
<path d="M12.6201 32.22C14.4801 33.78 16.4901 34.5 21.0001 34.5H23.2901" stroke="white" stroke-width="3.408" stroke-linecap="round" stroke-linejoin="round"/>
</svg>
